<?xml version="1.0" encoding="iso-8859-1"?>
<!-- Generator: Adobe Illustrator 19.0.0, SVG Export Plug-In . SVG Version: 6.00 Build 0)  -->
<svg version="1.1" id="Capa_1" xmlns="http://www.w3.org/2000/svg" xmlns:xlink="http://www.w3.org/1999/xlink" x="0px" y="0px"
	 viewBox="0 0 512 512" style="enable-background:new 0 0 512 512;" xml:space="preserve">
<circle style="fill:#2196F3;" cx="256" cy="256" r="256"/>
<path style="fill:#FAFAFA;" d="M311.008,339.744C299.072,347.872,285.952,352,272,352c-29.472,0-55.008-19.456-68.864-48H256
	c8.832,0,16-7.168,16-16s-7.168-16-16-16h-62.656c-0.736-5.216-1.344-10.528-1.344-16s0.608-10.784,1.344-16H272
	c8.832,0,16-7.168,16-16s-7.168-16-16-16h-68.864c13.856-28.544,39.392-48,68.864-48c13.952,0,27.072,4.128,39.008,12.256
	c7.264,4.96,17.248,3.168,22.208-4.192c4.96-7.296,3.104-17.248-4.224-22.24C311.904,134.176,292.192,128,272,128
	c-46.88,0-87.008,33.184-103.68,80H144c-8.832,0-16,7.168-16,16s7.168,16,16,16h17.408c-0.576,5.312-1.408,10.528-1.408,16
	c0,5.472,0.832,10.688,1.408,16H144c-8.832,0-16,7.168-16,16s7.168,16,16,16h24.32c16.672,46.816,56.8,80,103.68,80
	c20.192,0,39.904-6.176,56.992-17.824c7.328-4.992,9.184-14.944,4.224-22.24S318.24,334.816,311.008,339.744z"/>
<g>
</g>
<g>
</g>
<g>
</g>
<g>
</g>
<g>
</g>
<g>
</g>
<g>
</g>
<g>
</g>
<g>
</g>
<g>
</g>
<g>
</g>
<g>
</g>
<g>
</g>
<g>
</g>
<g>
</g>
</svg>
